<svg width="32" height="32" viewBox="0 0 32 32" fill="none" xmlns="http://www.w3.org/2000/svg">
<rect width="32" height="32" fill="#D5D7E1"/>
<path d="M16 11H10V12H16V11Z" fill="#F3322C"/>
<path d="M23 11H17V12H23V11Z" fill="#F3322C"/>
<path d="M11 12H10V13H11V12Z" fill="#F3322C"/>
<path d="M13 12H11V13H13V12Z" fill="white"/>
<path d="M15 12H13V13H15V12Z" fill="black"/>
<path d="M16 12H15V13H16V12Z" fill="#F3322C"/>
<path d="M18 12H17V13H18V12Z" fill="#F3322C"/>
<path d="M20 12H18V13H20V12Z" fill="white"/>
<path d="M22 12H20V13H22V12Z" fill="black"/>
<path d="M23 12H22V13H23V12Z" fill="#F3322C"/>
<path d="M11 13H7V14H11V13Z" fill="#F3322C"/>
<path d="M13 13H11V14H13V13Z" fill="white"/>
<path d="M15 13H13V14H15V13Z" fill="black"/>
<path d="M18 13H15V14H18V13Z" fill="#F3322C"/>
<path d="M20 13H18V14H20V13Z" fill="white"/>
<path d="M22 13H20V14H22V13Z" fill="black"/>
<path d="M23 13H22V14H23V13Z" fill="#F3322C"/>
<path d="M8 14H7V15H8V14Z" fill="#F3322C"/>
<path d="M11 14H10V15H11V14Z" fill="#F3322C"/>
<path d="M13 14H11V15H13V14Z" fill="white"/>
<path d="M15 14H13V15H15V14Z" fill="black"/>
<path d="M16 14H15V15H16V14Z" fill="#F3322C"/>
<path d="M18 14H17V15H18V14Z" fill="#F3322C"/>
<path d="M20 14H18V15H20V14Z" fill="white"/>
<path d="M22 14H20V15H22V14Z" fill="black"/>
<path d="M23 14H22V15H23V14Z" fill="#F3322C"/>
<path d="M8 15H7V16H8V15Z" fill="#F3322C"/>
<path d="M11 15H10V16H11V15Z" fill="#F3322C"/>
<path d="M13 15H11V16H13V15Z" fill="white"/>
<path d="M15 15H13V16H15V15Z" fill="black"/>
<path d="M16 15H15V16H16V15Z" fill="#F3322C"/>
<path d="M18 15H17V16H18V15Z" fill="#F3322C"/>
<path d="M20 15H18V16H20V15Z" fill="white"/>
<path d="M22 15H20V16H22V15Z" fill="black"/>
<path d="M23 15H22V16H23V15Z" fill="#F3322C"/>
<path d="M16 16H10V17H16V16Z" fill="#F3322C"/>
<path d="M23 16H17V17H23V16Z" fill="#F3322C"/>
</svg>
