<svg width="1083" height="1083" viewBox="0 0 1083 1083" fill="none" xmlns="http://www.w3.org/2000/svg">
<path fill-rule="evenodd" clip-rule="evenodd" d="M379 345.482L339 338L312 345.482L271 338L246 345.482L203 338V473L181 477.5L136 473L113 477.5L68 473L47 477.5L0 473V676H47H68V541.5L113 544L136 541.5L181 544L203 541.5V744L246 742.5L271 744L312 742.5L339 744L379 742.5L407 744L445 742.5L474 744L511 742.5L542 744L577 742.5L610 744V541L643 544L676 541V744L709 742.5L744 744L775 742.5L812 744L841 742.5L879 744L907 742.5L947 744L974 742.5L1015 744L1040 742.5L1083 744V338L1040 345.482L1015 338L974 345.482L947 338L907 345.482L879 338L841 345.482L812 338L775 345.482L744 338L709 345.482L676 338V474L643 477.5L610 474V338L577 345.482L542 338L511 345.482L474 338L445 345.482L407 338L379 345.482Z" fill="#F3322C"/>
<path fill-rule="evenodd" clip-rule="evenodd" d="M246 345.482L271 338V744L246 742.5V345.482ZM68 473L47 477.5V676H68V473ZM203 473L181 477.5V544L203 541.5V473ZM339 338L312 345.482V742.5L339 744V338ZM379 345.482L407 338V744L379 742.5V345.482ZM474 338L445 345.482V742.5L474 744V338ZM511 345.482L542 338V744L511 742.5V345.482ZM610 338L577 345.482V742.5L610 744V338ZM113 477.5L136 473V541.5L113 544V477.5ZM907 345.482L947 338V744L907 742.5V345.482ZM879 338L841 345.482V742.5L879 744V338ZM775 345.482L812 338V744L775 742.5V345.482ZM744 338L709 345.482V742.5L744 744V338ZM643 477.5L676 474V541L643 544V477.5ZM1015 338L974 345.482V742.5L1015 744V338ZM1040 345.482L1083 338V744L1040 742.5V345.482Z" fill="#F3322C"/>
<path fill-rule="evenodd" clip-rule="evenodd" d="M271 405L312 411.5L339 405L379 411.5L407 405L445 411.5L474 405L511 411.5L542 405V676H511H474H445H407H379H339H312H271V405ZM775 411.5L812 405L841 411.5L879 405L907 411.5L947 405L974 411.5L1015 405V676H974H947H907H879H841H812H775H744V405L775 411.5Z" fill="white"/>
<path fill-rule="evenodd" clip-rule="evenodd" d="M445 411.5L407 405V676H445H474H511H542V405L511 411.5L474 405L445 411.5ZM907 411.5L879 405V676H907H947H974H1015V405L974 411.5L947 405L907 411.5Z" fill="black"/>
</svg>
