<?xml version="1.0" standalone="no"?>
<!DOCTYPE svg PUBLIC "-//W3C//DTD SVG 20010904//EN"
 "http://www.w3.org/TR/2001/REC-SVG-20010904/DTD/svg10.dtd">
<svg version="1.0" xmlns="http://www.w3.org/2000/svg"
 width="700.000000pt" height="700.000000pt" viewBox="0 0 700.000000 700.000000"
 preserveAspectRatio="xMidYMid meet">
<metadata>
Created by potrace 1.14, written by Peter Selinger 2001-2017
</metadata>
<g transform="translate(0.000000,700.000000) scale(0.100000,-0.100000)"
fill="#000000" stroke="none">
<path d="M1310 4377 l0 -436 -57 -11 c-32 -6 -64 -13 -71 -15 -7 -3 -80 2
-162 11 -134 14 -157 14 -223 0 -66 -13 -89 -13 -217 0 -126 13 -151 13 -214
0 -63 -13 -89 -13 -211 -1 -77 8 -143 15 -147 15 -5 0 -8 -295 -8 -655 l0
-655 220 0 220 0 0 436 0 437 143 -8 c78 -4 165 -6 192 -4 58 4 215 4 361 0
55 -1 117 0 137 4 l37 7 2 -652 3 -652 1313 -1 1312 -2 0 654 0 654 108 -8
c59 -4 112 -7 117 -8 6 0 54 3 108 7 l97 8 0 -654 0 -653 1315 0 1315 0 0
1308 c0 719 -3 1307 -7 1307 -5 0 -68 -9 -141 -21 l-134 -22 -80 23 -80 23
-133 -23 -134 -23 -86 23 -86 23 -130 -23 -129 -23 -93 23 -93 23 -118 -23
-118 -23 -98 23 -98 23 -117 -23 -118 -23 -103 23 -103 23 -111 -23 c-117 -25
-125 -24 -297 17 l-23 5 -2 -438 -3 -439 -110 -12 c-84 -8 -135 -8 -210 0
l-100 12 -3 438 c-1 240 -6 437 -10 437 -4 0 -51 -10 -106 -22 l-99 -22 -114
24 -115 23 -99 -23 -100 -24 -119 23 -119 23 -96 -23 -95 -23 -120 23 -119 23
-95 -23 -95 -23 -125 23 -126 23 -89 -23 -88 -23 -133 23 -132 23 -80 -23 -80
-22 -112 18 c-61 10 -123 20 -138 23 l-28 4 0 -435z m594 -16 c107 -18 111
-18 189 0 97 23 115 23 250 0 105 -18 110 -18 185 0 42 10 83 18 90 19 9 0 12
-181 12 -875 l0 -875 -440 0 -440 0 0 875 0 875 23 0 c12 0 71 -9 131 -19z
m3023 0 c80 -18 85 -18 185 0 129 23 148 23 246 0 78 -19 82 -19 183 0 57 10
112 19 122 19 16 0 17 -48 17 -875 l0 -875 -435 0 -435 0 0 875 c0 827 1 875
18 875 9 0 54 -9 99 -19z"/>
</g>
</svg>
