<svg width="35" height="35" viewBox="0 0 35 35" fill="none" xmlns="http://www.w3.org/2000/svg">
<rect x="25" y="30" width="5" height="5" transform="rotate(180 25 30)" fill="black"/>
<rect x="35" y="20" width="5" height="5" transform="rotate(180 35 20)" fill="black"/>
<rect x="5" y="20" width="5" height="5" transform="rotate(180 5 20)" fill="black"/>
<rect x="20" y="20" width="5" height="5" transform="rotate(180 20 20)" fill="black"/>
<rect x="15" y="20" width="5" height="5" transform="rotate(180 15 20)" fill="black"/>
<rect x="10" y="20" width="5" height="5" transform="rotate(180 10 20)" fill="black"/>
<rect x="30" y="25" width="5" height="5" transform="rotate(180 30 25)" fill="black"/>
<rect x="30" y="15" width="5" height="5" transform="rotate(180 30 15)" fill="black"/>
<rect x="25" y="10" width="5" height="5" transform="rotate(180 25 10)" fill="black"/>
<rect x="20" y="35" width="5" height="5" transform="rotate(180 20 35)" fill="black"/>
<rect x="20" y="5" width="5" height="5" transform="rotate(180 20 5)" fill="black"/>
</svg>
